<?xml version="1.0" encoding="UTF-8"?>
<svg version="1.1" xmlns="http://www.w3.org/2000/svg" width="225" height="225">
<path d="M0 0 C74.25 0 148.5 0 225 0 C225 74.25 225 148.5 225 225 C150.75 225 76.5 225 0 225 C0 150.75 0 76.5 0 0 Z " fill="#01A0DF" transform="translate(0,0)"/>
<path d="M0 0 C1.32 0.66 2.64 1.32 4 2 C1.56696874 10.87842985 -1.70836494 19.41405225 -5 28 C-2.69 26.35 -0.38 24.7 2 23 C2 26.57371847 0.87573742 28.04159118 -1.42578125 30.69921875 C-4.05490769 32.8716731 -6.69333135 32.93641022 -10 33 C-11 32 -11 32 -11.0625 28.9375 C-11.0315625 27.4834375 -11.0315625 27.4834375 -11 26 C-11.598125 26.78375 -12.19625 27.5675 -12.8125 28.375 C-15 31 -15 31 -18 33 C-21.5625 33.3125 -21.5625 33.3125 -25 33 C-27.54538482 29.18192277 -27.78219455 26.40424857 -27 22 C-24.11301373 13.8220351 -19.71844866 6.35583769 -12 2 C-8.99069483 1.32339805 -6.26794854 1.06510506 -3.1875 1.03515625 C-1.02216081 1.25404506 -1.02216081 1.25404506 0 0 Z " fill="#F1F8FC" transform="translate(108,79)"/>
<path d="M0 0 C3.63 0 7.26 0 11 0 C9.56162467 9.9088078 5.75473074 18.78384273 2 28 C2.33265869 27.51716553 2.66531738 27.03433105 3.00805664 26.53686523 C3.45012451 25.90466064 3.89219238 25.27245605 4.34765625 24.62109375 C4.78343994 23.99388428 5.21922363 23.3666748 5.66821289 22.72045898 C7.51197658 20.33860698 9.22254902 19.15162601 12 18 C15.1875 17.6875 15.1875 17.6875 18 18 C20 20 20 20 20.3125 23.59375 C20.19338263 28.29888593 18.77360191 32.1858332 17 36.5 C16.71382812 37.22703125 16.42765625 37.9540625 16.1328125 38.703125 C15.43395426 40.47356588 14.71868368 42.23751382 14 44 C15.98 42.68 17.96 41.36 20 40 C20 43.95564164 18.59478606 45.10866696 16 48 C12.5647952 50.29013653 11.014669 50.17842973 7 50 C5.92236863 46.78188636 6.03070197 45.15380705 7.3984375 42.06640625 C7.71296875 41.33486328 8.0275 40.60332031 8.3515625 39.84960938 C8.68929687 39.09486328 9.02703125 38.34011719 9.375 37.5625 C12.33130275 30.98699761 12.33130275 30.98699761 14 24 C6.46025867 26.30808408 2.77650737 30.97675878 -0.98779297 37.78710938 C-3.10281293 41.80615941 -5.07514307 45.88700784 -7 50 C-8.65 49.67 -10.3 49.34 -12 49 C-9.60488174 40.41463703 -6.54017978 32.09688862 -3.4375 23.75 C-2.69270453 21.73936669 -1.94879379 19.72841136 -1.20582581 17.71710205 C-0.53528437 15.9029078 0.13767842 14.08960904 0.81079102 12.27636719 C1.92743524 9.1999218 2.98076064 6.10990359 4 3 C2.68 3 1.36 3 0 3 C0 2.01 0 1.02 0 0 Z " fill="#F1F8FC" transform="translate(58,62)"/>
<path d="M0 0 C3.08301416 -0.11644156 6.16546123 -0.18732432 9.25 -0.25 C10.12269531 -0.28351563 10.99539062 -0.31703125 11.89453125 -0.3515625 C18.37663089 -0.45052585 18.37663089 -0.45052585 21.578125 1.86328125 C23.38540253 4.57916259 23.62514595 5.79612701 23 9 C21 11.8125 21 11.8125 19 14 C19.928125 14.4021875 19.928125 14.4021875 20.875 14.8125 C23 16 23 16 25 19 C24.91546429 22.9731785 24.5033138 24.5099313 21.625 27.3125 C17.05746609 30.2487718 13.06315207 30.12211439 7.8125 30.0625 C7.06291016 30.05798828 6.31332031 30.05347656 5.54101562 30.04882812 C3.69397617 30.03706354 1.84697787 30.01912865 0 30 C0 29.34 0 28.68 0 28 C0.99 27.67 1.98 27.34 3 27 C3.08676908 22.87513162 3.14031295 18.75049616 3.1875 14.625 C3.21263672 13.449375 3.23777344 12.27375 3.26367188 11.0625 C3.27333984 9.94101563 3.28300781 8.81953125 3.29296875 7.6640625 C3.3086792 6.62717285 3.32438965 5.5902832 3.34057617 4.52197266 C3.22818604 3.68972168 3.1157959 2.8574707 3 2 C2.01 1.34 1.02 0.68 0 0 Z " fill="#E8F4FB" transform="translate(178,124)"/>
<path d="M0 0 C3.96 0 7.92 0 12 0 C11.34 1.32 10.68 2.64 10 4 C10.592923 7.28447346 10.592923 7.28447346 11.8125 10.6875 C12.19019531 11.84636719 12.56789063 13.00523437 12.95703125 14.19921875 C13.7300356 16.86866587 13.7300356 16.86866587 15 18 C16.98 12.06 18.96 6.12 21 0 C21.99 0 22.98 0 24 0 C26.31 6.27 28.62 12.54 31 19 C31.66 16.751875 32.32 14.50375 33 12.1875 C33.37125 10.92292969 33.7425 9.65835938 34.125 8.35546875 C35.12616509 5.09412585 35.12616509 5.09412585 35 2 C34.34 1.34 33.68 0.68 33 0 C36.3 0 39.6 0 43 0 C43 0.66 43 1.32 43 2 C42.01 2 41.02 2 40 2 C39.85304687 2.51304688 39.70609375 3.02609375 39.5546875 3.5546875 C36.94903105 12.44985952 33.95641279 21.21687075 31 30 C30.01 30 29.02 30 28 30 C26.99619084 27.20964954 25.9968055 24.41785145 25 21.625 C24.71382812 20.8309375 24.42765625 20.036875 24.1328125 19.21875 C23.86210937 18.45820313 23.59140625 17.69765625 23.3125 16.9140625 C23.06113281 16.2123291 22.80976563 15.5105957 22.55078125 14.78759766 C22 13 22 13 22 11 C21.34 11 20.68 11 20 11 C19.7525 12.27875 19.505 13.5575 19.25 14.875 C18.08835439 20.169747 16.13659734 25.03189259 14 30 C13.01 29.67 12.02 29.34 11 29 C9.92504883 26.62329102 9.92504883 26.62329102 8.95703125 23.50390625 C8.60576172 22.38822266 8.25449219 21.27253906 7.89257812 20.12304688 C7.53615234 18.94806641 7.17972656 17.77308594 6.8125 16.5625 C6.44447266 15.39138672 6.07644531 14.22027344 5.69726562 13.01367188 C3 4.34138741 3 4.34138741 3 2 C2.01 2 1.02 2 0 2 C0 1.34 0 0.68 0 0 Z " fill="#F1F8FC" transform="translate(109,124)"/>
<path d="M0 0 C4.62 0 9.24 0 14 0 C13.67 0.66 13.34 1.32 13 2 C12.01 2 11.02 2 10 2 C10 5.63 10 9.26 10 13 C14.62 13 19.24 13 24 13 C23.896875 11.411875 23.79375 9.82375 23.6875 8.1875 C23.62949219 7.29417969 23.57148437 6.40085938 23.51171875 5.48046875 C23.15561475 2.60595819 23.15561475 2.60595819 20 0 C24.29 0 28.58 0 33 0 C32.67 0.66 32.34 1.32 32 2 C31.01 2 30.02 2 29 2 C29.33 10.25 29.66 18.5 30 27 C30.99 27.33 31.98 27.66 33 28 C33 28.66 33 29.32 33 30 C28.38 30 23.76 30 19 30 C19 29.34 19 28.68 19 28 C19.99 27.67 20.98 27.34 22 27 C22.33 23.04 22.66 19.08 23 15 C18.71 15 14.42 15 10 15 C10.33 18.96 10.66 22.92 11 27 C11.99 27.33 12.98 27.66 14 28 C14 28.66 14 29.32 14 30 C9.38 30 4.76 30 0 30 C0 29.34 0 28.68 0 28 C1.32 28 2.64 28 4 28 C4.11591764 23.89606988 4.18715601 19.79255894 4.25 15.6875 C4.28351563 14.52025391 4.31703125 13.35300781 4.3515625 12.15039062 C4.36445312 11.03212891 4.37734375 9.91386719 4.390625 8.76171875 C4.41157227 7.73006592 4.43251953 6.69841309 4.45410156 5.63549805 C4.21507783 2.44620119 4.21507783 2.44620119 0 0 Z " fill="#EFF7FC" transform="translate(74,124)"/>
<path d="M0 0 C2.0625 1.125 2.0625 1.125 3 3 C3.125 5.9375 3.125 5.9375 2 9 C-2.9087844 12.84165736 -7.51840214 13.63651334 -13.64453125 14.3125 C-16.11468996 14.77411732 -16.11468996 14.77411732 -17.31640625 16.796875 C-18.02851496 19.09189963 -18.20480448 20.85586551 -18.125 23.25 C-18.08375 24.4875 -18.0425 25.725 -18 27 C-13.24636504 27.33164895 -10.95604207 26.56608134 -7 24 C-6.01 24 -5.02 24 -4 24 C-5.2146079 27.77878014 -7.54002355 29.4194591 -10.99609375 31.23046875 C-14.6356773 32.62812559 -17.11417325 32.5733187 -21 32 C-23.70419205 29.90425116 -24.69598035 28.35475422 -25.4453125 25.015625 C-26.00254083 18.18352111 -23.0940992 13.27663989 -19 8 C-13.18884725 1.9389052 -8.43869927 -0.66973804 0 0 Z " fill="#F2F9FC" transform="translate(179,80)"/>
<path d="M0 0 C3.3 0 6.6 0 10 0 C9.41815536 5.45613214 8.05331429 10.1232949 6.09375 15.234375 C5.80898804 15.99421692 5.52422607 16.75405884 5.23083496 17.53692627 C4.32719537 19.94384629 3.41386458 22.34694607 2.5 24.75 C1.88605466 26.37865606 1.27276696 28.0075602 0.66015625 29.63671875 C-0.20096964 31.92650664 -1.06304326 34.21588279 -1.93029785 36.50335693 C-2.999249 39.32336703 -4.04618643 42.13855928 -5 45 C-3.05000871 44.80528889 -3.05000871 44.80528889 -1 44 C0.28436734 42.0162233 0.28436734 42.0162233 1 40 C1.66 40 2.32 40 3 40 C2.14586122 44.62239813 -0.2024432 47.31370982 -4 50 C-7.3125 50.4375 -7.3125 50.4375 -10 50 C-11 49 -11 49 -11.23803711 45.44238281 C-11.17390261 40.83264362 -9.91674814 37.15433647 -8.19140625 32.921875 C-7.90522934 32.18801575 -7.61905243 31.45415649 -7.32420349 30.69805908 C-6.41623186 28.37684401 -5.490136 26.0634175 -4.5625 23.75 C-3.64237611 21.42091382 -2.72605 19.09037744 -1.81150818 16.75909424 C-1.2435444 15.31505608 -0.67166552 13.87254993 -0.09535217 12.43182373 C1.14101734 9.32143549 2.32063068 6.28405556 3 3 C1.68 3 0.36 3 -1 3 C-0.67 2.01 -0.34 1.02 0 0 Z " fill="#F1F8FC" transform="translate(148,62)"/>
<path d="M0 0 C1.86132812 0.15649414 1.86132812 0.15649414 4 1 C5.21679688 3.37670898 5.21679688 3.37670898 6.21875 6.49609375 C6.59386719 7.61177734 6.96898437 8.72746094 7.35546875 9.87695312 C7.73316406 11.05193359 8.11085937 12.22691406 8.5 13.4375 C9.24681281 15.75312949 10.00665449 18.06460917 10.78125 20.37109375 C11.11189453 21.40161865 11.44253906 22.43214355 11.78320312 23.49389648 C13.15988802 26.32930388 14.07470659 26.98128882 17 28 C17 28.66 17 29.32 17 30 C12.71 30 8.42 30 4 30 C4 29.34 4 28.68 4 28 C4.99 28 5.98 28 7 28 C6.34 25.03 5.68 22.06 5 19 C2.03 19 -0.94 19 -4 19 C-4.66 21.97 -5.32 24.94 -6 28 C-5.01 28 -4.02 28 -3 28 C-3 28.66 -3 29.32 -3 30 C-6.63 30 -10.26 30 -14 30 C-14 29.34 -14 28.68 -14 28 C-13.08976074 27.68699951 -13.08976074 27.68699951 -12.16113281 27.36767578 C-9.13020443 25.44954871 -8.65366427 23.45598474 -7.421875 20.1171875 C-6.76445312 18.36728516 -6.76445312 18.36728516 -6.09375 16.58203125 C-5.6503125 15.35871094 -5.206875 14.13539063 -4.75 12.875 C-4.29109375 11.64394531 -3.8321875 10.41289062 -3.359375 9.14453125 C-2.22682966 6.10081564 -1.10770179 3.05282613 0 0 Z " fill="#F0F7FC" transform="translate(160,124)"/>
<path d="M0 0 C2.0625 1.1875 2.0625 1.1875 3 3 C2.6875 5.6875 2.6875 5.6875 2 8 C-0.46800047 6.84826645 -2.04783565 5.95216435 -4 4 C-7.06150319 4.17979464 -8.60930886 4.66489818 -10.94921875 6.671875 C-16.76173773 13.6207741 -18.35401522 17.97261201 -18 27 C-13.11388989 27.28189097 -10.72519171 27.19302147 -7 24 C-6.01 24 -5.02 24 -4 24 C-5.52240117 28.26272329 -8.03275246 29.98031034 -12 32 C-15.13690578 32.59258705 -17.8702895 32.65326026 -21 32 C-24.06046911 29.83527794 -24.78709463 28.18887867 -25.44140625 24.53515625 C-25.85486605 18.26288311 -24.70163918 14.03117667 -20.92578125 9.01171875 C-15.08263298 2.90782147 -8.55174667 -0.95988993 0 0 Z " fill="#F0F8FC" transform="translate(49,80)"/>
<path d="M0 0 C0 2.64 0 5.28 0 8 C-0.680625 6.7625 -0.680625 6.7625 -1.375 5.5 C-4.3366898 2.67934305 -5.07383461 2.5706885 -9 2.4375 C-12.3854936 2.61200998 -13.71489956 2.80529726 -16.5625 4.75 C-19.39349705 9.18112582 -19.56899843 13.80913715 -19 19 C-17.43564712 23.0226217 -16.61276337 24.59149109 -13 27 C-8.92962461 27.54506579 -8.92962461 27.54506579 -5 27 C-2.90159457 25.19537133 -1.61869339 23.2852142 0 21 C0.66 21 1.32 21 2 21 C1.71848913 22.31471568 1.42446661 23.62675767 1.125 24.9375 C0.96257812 25.66839844 0.80015625 26.39929688 0.6328125 27.15234375 C0 29 0 29 -2 30 C-8.13518604 30.47980301 -13.94536774 30.92104205 -19.625 28.375 C-23.85959303 24.14040697 -26.22603698 21.08197909 -26.5 15 C-26.27250261 10.25810122 -25.30520872 7.55309937 -22 4 C-15.58454262 -1.69088808 -8.11701025 -2.70567008 0 0 Z " fill="#F5FAFD" transform="translate(71,124)"/>
<path d="M0 0 C-0.33 2.97 -0.66 5.94 -1 9 C-0.60167969 8.44570312 -0.20335938 7.89140625 0.20703125 7.3203125 C1.00173828 6.23363281 1.00173828 6.23363281 1.8125 5.125 C2.33457031 4.40570313 2.85664063 3.68640625 3.39453125 2.9453125 C5 1 5 1 8 -1 C11.1875 -1.125 11.1875 -1.125 14 -1 C14 0.65 14 2.3 14 4 C12.68 4 11.36 4 10 4 C7.13793025 4.26831904 6.19849704 4.78942053 4.203125 6.90625 C1.1929069 11.13336479 -0.98489581 15.65389181 -3.25 20.3125 C-3.70890625 21.24384766 -4.1678125 22.17519531 -4.640625 23.13476562 C-5.76593013 25.42054168 -6.88551377 27.70893473 -8 30 C-9.65 30 -11.3 30 -13 30 C-11.59742262 24.67816384 -10.17718945 19.3898794 -8.375 14.1875 C-7.21640454 10.81483468 -6.45499151 7.54893375 -6 4 C-8.97 6.475 -8.97 6.475 -12 9 C-12.33 8.34 -12.66 7.68 -13 7 C-12.04578192 5.85073734 -11.08647955 4.70569459 -10.125 3.5625 C-9.59132813 2.92441406 -9.05765625 2.28632812 -8.5078125 1.62890625 C-5.63159679 -1.47830088 -3.90872378 -0.92575037 0 0 Z " fill="#ECF6FB" transform="translate(128,81)"/>
<path d="M0 0 C0.99 0.33 1.98 0.66 3 1 C3 3.31 3 5.62 3 8 C2.46375 7.34 1.9275 6.68 1.375 6 C-0.89958592 3.68975201 -0.89958592 3.68975201 -4.25 3.75 C-5.1575 3.8325 -6.065 3.915 -7 4 C-7.33 5.65 -7.66 7.3 -8 9 C-7.30132812 9.48210937 -6.60265625 9.96421875 -5.8828125 10.4609375 C-4.97273438 11.09257812 -4.06265625 11.72421875 -3.125 12.375 C-2.22007813 13.00148437 -1.31515625 13.62796875 -0.3828125 14.2734375 C2 16 2 16 4 18 C4.54649221 22.7622893 4.68081954 24.91068873 2.125 29 C-2.17575918 31.75248588 -6.00803668 31.8037907 -11 31 C-11.99 30.34 -12.98 29.68 -14 29 C-14.1875 25.375 -14.1875 25.375 -14 22 C-11 25 -11 25 -8 28 C-6.00041636 28.04080783 -3.99954746 28.04254356 -2 28 C-1.16046733 24.80095012 -1.16046733 24.80095012 -2 21 C-5.06558848 18.21856589 -8.46746677 16.13763549 -12 14 C-13 13 -13 13 -13.3125 9.1875 C-13.28363496 5.96616111 -13.17080745 5.22204968 -11.125 2.5625 C-7.29403101 -0.25438896 -4.74144109 -0.16636635 0 0 Z " fill="#F4F9FD" transform="translate(37,123)"/>
<path d="M0 0 C0.33 0.33 0.66 0.66 1 1 C0.84748344 9.54092718 -3.15588465 14.67030399 -8.5625 21 C-11.14362204 23.11784372 -12.70821413 23.71784693 -16 24 C-16.71693484 16.36862697 -15.64400993 11.17580378 -11 5 C-7.81862058 1.43552254 -4.98833224 -0.85514267 0 0 Z " fill="#049FDE" transform="translate(103,83)"/>
<path d="M0 0 C0.66 1.32 1.32 2.64 2 4 C0 6 0 6 -2.3828125 6.1953125 C-3.28773438 6.17210938 -4.19265625 6.14890625 -5.125 6.125 C-6.03507812 6.10695313 -6.94515625 6.08890625 -7.8828125 6.0703125 C-8.58148438 6.04710938 -9.28015625 6.02390625 -10 6 C-9.64388622 9.7391947 -9.15585003 11.78275451 -6.9375 14.875 C-4.85412985 18.23527443 -4.2089875 20.14391372 -4.42578125 24.03125 C-5.37256462 27.27736441 -7.25965602 28.94775154 -9.921875 30.93359375 C-13.54108187 32.79081833 -15.98686204 32.60197069 -20 32 C-22.0625 30.75 -22.0625 30.75 -23 29 C-22.6875 26.8125 -22.6875 26.8125 -22 25 C-19.03824877 25.61277612 -17.61941217 26.25372522 -15 28 C-12.35367713 27.6878236 -12.35367713 27.6878236 -10 27 C-10.36019743 23.21792702 -10.83423303 21.22427295 -13.125 18.125 C-15.29592214 14.50679643 -15.37110419 12.91798461 -14.6171875 8.89453125 C-12.21188986 1.51118089 -7.14105843 -0.2694739 0 0 Z " fill="#F3F9FD" transform="translate(200,80)"/>
<path d="M0 0 C4.29 0 8.58 0 13 0 C12.01 0.66 11.02 1.32 10 2 C9.41651248 4.6556728 9.41651248 4.6556728 9.3125 7.625 C9.24675781 8.62789062 9.18101562 9.63078125 9.11328125 10.6640625 C9.07589844 11.43492187 9.03851563 12.20578125 9 13 C10.65 13 12.3 13 14 13 C14 13.33 14 13.66 14 14 C12.35 14 10.7 14 9 14 C9.06010418 15.93835966 9.14891717 17.87584491 9.25 19.8125 C9.29640625 20.89144531 9.3428125 21.97039062 9.390625 23.08203125 C9.77289843 26.51764323 9.77289843 26.51764323 14 29 C9.38 29 4.76 29 0 29 C0.99 28.34 1.98 27.68 3 27 C3.46646462 24.4187315 3.46646462 24.4187315 3.3984375 21.40625 C3.40230469 20.29378906 3.40617188 19.18132812 3.41015625 18.03515625 C3.39855469 16.86855469 3.38695312 15.70195312 3.375 14.5 C3.39240234 12.75009766 3.39240234 12.75009766 3.41015625 10.96484375 C3.40628906 9.85238281 3.40242187 8.73992187 3.3984375 7.59375 C3.39505371 6.56958984 3.39166992 5.54542969 3.38818359 4.49023438 C3.26008301 3.66845703 3.13198242 2.84667969 3 2 C2.01 1.34 1.02 0.68 0 0 Z " fill="#FBFDFE" transform="translate(178,124)"/>
<path d="M0 0 C3.57763189 -0.32523926 5.39542581 -0.42956587 8.375 1.6875 C10 4 10 4 10.4375 6.5625 C10 9 10 9 8.875 10.8125 C6.19768863 12.50813053 4.09910627 12.2694875 1 12 C0 11 0 11 -0.09765625 8.49609375 C-0.08605469 7.48675781 -0.07445312 6.47742188 -0.0625 5.4375 C-0.05347656 4.42558594 -0.04445312 3.41367188 -0.03515625 2.37109375 C-0.02355469 1.58863281 -0.01195312 0.80617187 0 0 Z " fill="#13A4E0" transform="translate(187,139)"/>
<path d="M0 0 C2.875 -0.125 2.875 -0.125 6 0 C8 2 8 2 8.3125 4.9375 C8 8 8 8 6.8125 9.875 C5 11 5 11 0 11 C0 7.37 0 3.74 0 0 Z " fill="#13A3DF" transform="translate(187,126)"/>
<path d="M0 0 C1.1446875 0.3403125 1.1446875 0.3403125 2.3125 0.6875 C2.1875 3 2.1875 3 1.3125 5.6875 C-2.40412762 8.13709548 -5.25116125 9.07894165 -9.6875 8.6875 C-3.80384615 -0.44230769 -3.80384615 -0.44230769 0 0 Z " fill="#10A2DF" transform="translate(174.6875,82.3125)"/>
<path d="M0 0 C0.66 1.32 1.32 2.64 2 4 C0 6 0 6 -2.8203125 6.1953125 C-3.91085938 6.17210938 -5.00140625 6.14890625 -6.125 6.125 C-7.22070312 6.10695313 -8.31640625 6.08890625 -9.4453125 6.0703125 C-10.28835937 6.04710938 -11.13140625 6.02390625 -12 6 C-9.40401988 0.00927665 -6.20086134 -0.23399477 0 0 Z " fill="#E7F4FB" transform="translate(200,80)"/>
<path d="M0 0 C1.77074917 -0.02705729 3.54161711 -0.04642195 5.3125 -0.0625 C6.29863281 -0.07410156 7.28476563 -0.08570312 8.30078125 -0.09765625 C11 0 11 0 14 1 C14 3.64 14 6.28 14 9 C13.525625 8.195625 13.05125 7.39125 12.5625 6.5625 C9.00982428 3.00982428 5.85927675 3.11421377 1 3 C0.67 2.01 0.34 1.02 0 0 Z " fill="#D0E9F7" transform="translate(57,123)"/>
<path d="M0 0 C6.625 -0.125 6.625 -0.125 10 1 C10 3.31 10 5.62 10 8 C9.443125 7.360625 8.88625 6.72125 8.3125 6.0625 C5.77933439 3.80319013 4.31658576 3.36850953 1 3 C0.67 2.01 0.34 1.02 0 0 Z " fill="#D4EBF8" transform="translate(30,123)"/>
<path d="M0 0 C3.125 -0.1875 3.125 -0.1875 6 0 C6 1.65 6 3.3 6 5 C2.23312136 5 1.08809695 4.76462683 -2 3 C-1.34 2.01 -0.68 1.02 0 0 Z " fill="#F7FBFD" transform="translate(136,80)"/>
<path d="M0 0 C0.66 0 1.32 0 2 0 C3.25664978 2.90600261 4 4.79604584 4 8 C2.02 8 0.04 8 -2 8 C-1.34 5.36 -0.68 2.72 0 0 Z " fill="#12A2DF" transform="translate(159,133)"/>
<path d="M0 0 C0.66 0 1.32 0 2 0 C1.34 2.64 0.68 5.28 0 8 C-1.65 8.33 -3.3 8.66 -5 9 C-4.42676569 5.13066838 -2.61046448 2.84777943 0 0 Z " fill="#E0F0F9" transform="translate(71,145)"/>
<path d="M0 0 C1.32 0 2.64 0 4 0 C4 0.66 4 1.32 4 2 C3.34 2 2.68 2 2 2 C1.34 4.97 0.68 7.94 0 11 C-0.99 11 -1.98 11 -3 11 C-2.01 7.37 -1.02 3.74 0 0 Z " fill="#CFE8F7" transform="translate(127,133)"/>
<path d="M0 0 C0.33 0.99 0.66 1.98 1 3 C2.32 3 3.64 3 5 3 C5 3.66 5 4.32 5 5 C1.37 5 -2.26 5 -6 5 C-6 4.34 -6 3.68 -6 3 C-4.02 2.01 -2.04 1.02 0 0 Z " fill="#DCEEF9" transform="translate(152,149)"/>
<path d="M0 0 C0.33 0.99 0.66 1.98 1 3 C1.66 3.33 2.32 3.66 3 4 C2.34 4 1.68 4 1 4 C0.67 5.98 0.34 7.96 0 10 C-0.99 10 -1.98 10 -3 10 C-2.01 6.7 -1.02 3.4 0 0 Z " fill="#D1E9F7" transform="translate(158,129)"/>
<path d="M0 0 C0.66 0.33 1.32 0.66 2 1 C0.6875 3.5 0.6875 3.5 -1 6 C-1.99 6 -2.98 6 -4 6 C-2.84826645 3.53199953 -1.95216435 1.95216435 0 0 Z " fill="#DBEEF9" transform="translate(134,81)"/>
</svg>
